# File created by Blade
# Date/Time:  Wed Apr 08 17:39:35 2015
# Frame Rate: 120.000 fps
#------------------------------------------------------
:FULLY-SPECIFIED
:DEGREES
2092
root 9.419264 37.084289 1.147164 62.016993 -69.370439 -405.541440
Spine -17.882447 -1.281673 -9.270278
Head 38.916526 -7.049838 20.715734
LeftShoulder -7.742573 20.527942 15.622171
LeftArm 22.018965 21.109880 -72.197954
LeftForeArm 14.859610 -0.000000 18.985714
LeftHand -13.465778 -0.000000 -8.875234
LeftHandThumb1 -26.253704 0.000000 33.147579
RightShoulder -39.189703 -50.183623 25.308300
RightArm 56.341446 -17.333118 50.226962
RightForeArm 4.990904 -0.000000 22.074450
RightHand 1.675347 -0.000000 14.353832
RightHandThumb1 -24.326973 -0.000000 -32.862282
LeftUpLeg -25.859429 14.647131 6.113286
LeftLeg 17.124117 -0.000000 -0.000000
LeftFoot -12.703361 6.166914 -3.831913
LeftToeBase 7.295378 -0.000000 -0.000000
RightUpLeg -79.608251 -9.668978 3.551134
RightLeg 71.953557 -0.000000 -0.000000
RightFoot 23.056631 -19.808797 26.722242
RightToeBase 9.176499 -0.000000 -0.000000
2093
root 9.429868 37.077474 1.168053 62.182562 -69.529305 -405.646173
Spine -17.802678 -1.238574 -9.087704
Head 38.882489 -7.075228 20.606092
LeftShoulder -7.730053 20.516126 15.719476
LeftArm 22.026148 21.072371 -72.287015
LeftForeArm 14.897594 -0.000000 18.839523
LeftHand -13.473694 -0.000000 -8.985769
LeftHandThumb1 -26.253704 0.000000 33.147579
RightShoulder -39.155375 -50.251376 25.327924
RightArm 56.243866 -17.433167 50.270395
RightForeArm 4.809901 0.000000 22.151323
RightHand 1.752910 -0.000000 14.239927
RightHandThumb1 -24.326973 -0.000000 -32.862282
LeftUpLeg -25.873129 14.533614 5.979011
LeftLeg 17.080280 -0.000000 -0.000000
LeftFoot -12.724800 6.512082 -3.719193
LeftToeBase 7.039628 -0.000000 -0.000000
RightUpLeg -79.719459 -9.783816 3.569818
RightLeg 71.947257 -0.000000 -0.000000
RightFoot 21.892360 -19.642276 26.093708
RightToeBase 8.070560 -0.000000 -0.000000
2094
root 9.441145 37.069384 1.191389 62.343034 -69.708749 -405.725109
Spine -17.745227 -1.199294 -8.944817
Head 38.838473 -7.099119 20.549522
LeftShoulder -7.734787 20.566918 15.814939
LeftArm 22.049526 21.052997 -72.364919
LeftForeArm 14.769286 -0.000000 18.798705
LeftHand -13.547452 -0.000000 -8.846119
LeftHandThumb1 -26.253704 0.000000 33.147579
RightShoulder -38.975371 -50.124022 25.128973
RightArm 56.045503 -17.727975 50.264673
RightForeArm 4.648620 -0.000000 22.130093
RightHand 1.826467 -0.000000 14.216608
RightHandThumb1 -24.326973 -0.000000 -32.862282
LeftUpLeg -25.910032 14.337858 5.833509
LeftLeg 17.054537 -0.000000 -0.000000
LeftFoot -12.741088 6.949506 -3.598804
LeftToeBase 6.704089 -0.000000 -0.000000
RightUpLeg -79.833295 -9.929714 3.561763
RightLeg 71.902565 -0.000000 -0.000000
RightFoot 20.245912 -19.554044 25.597940
RightToeBase 7.271661 -0.000000 -0.000000
2095
root 9.452756 37.059045 1.219511 62.573596 -69.947552 -405.875447
Spine -17.697893 -1.129566 -8.825997
Head 38.794852 -7.086344 20.485405
LeftShoulder -7.749218 20.547981 15.901562
LeftArm 21.957336 21.083431 -72.434900
LeftForeArm 14.675179 0.000000 18.861263
LeftHand -13.540678 0.000000 -8.889056
LeftHandThumb1 -26.253704 0.000000 33.147579
RightShoulder -38.962683 -50.159230 25.156900
RightArm 56.033476 -17.870946 50.165040
RightForeArm 4.428383 0.000000 22.110261
RightHand 1.892946 -0.000000 13.987024
RightHandThumb1 -24.326973 -0.000000 -32.862282
LeftUpLeg -25.942321 14.145378 5.649509
LeftLeg 17.038014 -0.000000 -0.000000
LeftFoot -12.756687 7.421472 -3.442078
LeftToeBase 6.443990 -0.000000 -0.000000
RightUpLeg -79.937629 -10.047465 3.497753
RightLeg 71.824415 -0.000000 -0.000000
RightFoot 18.312446 -19.510273 25.080903
RightToeBase 6.690420 -0.000000 -0.000000
2096
root 9.463387 37.047186 1.252918 62.877518 -70.238376 -406.101887
Spine -17.676805 -1.018682 -8.733130
Head 38.784327 -7.049456 20.413617
LeftShoulder -7.764818 20.702502 15.932055
LeftArm 22.000780 21.058968 -72.412443
LeftForeArm 14.611730 0.000000 18.977497
LeftHand -13.471921 0.000000 -8.981501
LeftHandThumb1 -26.253704 0.000000 33.147579
RightShoulder -38.964716 -50.232750 25.202736
RightArm 56.075861 -17.979308 50.054195
RightForeArm 4.092571 0.000000 22.043648
RightHand 1.903357 -0.000000 13.851518
RightHandThumb1 -24.326973 -0.000000 -32.862282
LeftUpLeg -25.966031 13.865179 5.468760
LeftLeg 17.048753 -0.000000 -0.000000
LeftFoot -12.779263 7.975354 -3.313492
LeftToeBase 6.230413 -0.000000 -0.000000
RightUpLeg -80.027260 -10.164005 3.430333
RightLeg 71.686918 -0.000000 -0.000000
RightFoot 16.307447 -19.431751 24.425210
RightToeBase 5.850025 -0.000000 -0.000000
2097
root 9.479422 37.032144 1.289679 63.218871 -70.563735 -406.289410
Spine -17.735211 -0.905718 -8.666177
Head 38.767791 -7.003847 20.283171
LeftShoulder -7.767096 20.721405 15.994945
LeftArm 21.883734 21.178614 -72.405194
LeftForeArm 14.405815 -0.000000 19.170918
LeftHand -13.413816 -0.000000 -9.085590
LeftHandThumb1 -26.253704 0.000000 33.147579
RightShoulder -38.930284 -50.215569 25.135803
RightArm 56.056682 -18.167600 49.968551
RightForeArm 3.501188 -0.000000 21.969606
RightHand 1.907775 0.000000 13.583708
RightHandThumb1 -24.326973 -0.000000 -32.862282
LeftUpLeg -26.096753 13.554831 5.236307
LeftLeg 17.115599 -0.000000 -0.000000
LeftFoot -12.812185 8.516163 -3.209223
LeftToeBase 6.153986 -0.000000 -0.000000
RightUpLeg -80.201027 -10.292570 3.334979
RightLeg 71.503629 -0.000000 -0.000000
RightFoot 14.276308 -19.432801 23.779061
RightToeBase 5.000087 -0.000000 -0.000000
2098
root 9.494113 37.014510 1.331800 63.641232 -70.938591 -406.605165
Spine -17.764180 -0.743865 -8.614897
Head 38.764145 -6.941115 20.168945
LeftShoulder -7.797431 20.792834 16.022660
LeftArm 21.830746 21.320282 -72.342860
LeftForeArm 14.252936 -0.000000 19.391160
LeftHand -13.375770 -0.000000 -9.179867
LeftHandThumb1 -26.253704 0.000000 33.147579
RightShoulder -38.864443 -50.213705 25.047886
RightArm 56.051465 -18.301147 49.946584
RightForeArm 2.774362 0.000000 21.840271
RightHand 1.940666 -0.000000 13.307612
RightHandThumb1 -24.326973 -0.000000 -32.862282
LeftUpLeg -26.171627 13.218305 5.014033
LeftLeg 17.197429 -0.000000 -0.000000
LeftFoot -12.856579 9.075036 -3.109795
LeftToeBase 6.140857 -0.000000 -0.000000
RightUpLeg -80.304806 -10.383922 3.158670
RightLeg 71.260050 -0.000000 -0.000000
RightFoot 12.341886 -19.364800 23.317896
RightToeBase 3.794394 -0.000000 -0.000000
2099
root 9.508334 36.994030 1.376616 64.100294 -71.321546 -406.961442
Spine -17.793459 -0.574204 -8.559511
Head 38.755863 -6.866921 20.038859
LeftShoulder -7.823565 20.880711 16.036132
LeftArm 21.760203 21.466775 -72.261453
LeftForeArm 14.149277 -0.000000 19.662578
LeftHand -13.198922 -0.000000 -9.371651
LeftHandThumb1 -26.253704 0.000000 33.147579
RightShoulder -38.909011 -50.221049 25.044725
RightArm 56.146091 -18.432879 49.801999
RightForeArm 1.972200 -0.000000 21.720192
RightHand 1.861829 -0.000000 13.016136
RightHandThumb1 -24.326973 -0.000000 -32.862282
LeftUpLeg -26.267746 12.880326 4.804690
LeftLeg 17.338884 -0.000000 -0.000000
LeftFoot -12.936341 9.585744 -3.079272
LeftToeBase 6.192376 -0.000000 -0.000000
RightUpLeg -80.385464 -10.482236 2.970557
RightLeg 70.934243 -0.000000 -0.000000
RightFoot 10.598786 -19.275713 22.698284
RightToeBase 2.790812 -0.000000 -0.000000
2100
root 9.521230 36.972969 1.421081 64.646719 -71.709970 -407.417714
Spine -17.818978 -0.384050 -8.489835
Head 38.756190 -6.779230 19.885701
LeftShoulder -7.846159 20.937070 16.022462
LeftArm 21.634051 21.600108 -72.161374
LeftForeArm 14.227365 -0.000000 19.975538
LeftHand -13.019644 -0.000000 -9.722096
LeftHandThumb1 -26.253704 0.000000 33.147579
RightShoulder -38.904032 -50.228847 25.013322
RightArm 56.197622 -18.512364 49.741237
RightForeArm 1.017674 0.000000 21.605126
RightHand 1.672966 -0.000000 12.448236
RightHandThumb1 -24.326973 -0.000000 -32.862282
LeftUpLeg -26.381156 12.622526 4.605587
LeftLeg 17.534063 -0.000000 -0.000000
LeftFoot -13.051488 10.016555 -3.156105
LeftToeBase 6.161094 -0.000000 -0.000000
RightUpLeg -80.411633 -10.551386 2.763379
RightLeg 70.510014 -0.000000 -0.000000
RightFoot 9.067629 -19.253012 22.012214
RightToeBase 1.382798 -0.000000 -0.000000
2101
root 9.532247 36.948575 1.472140 65.241262 -72.138583 -407.967103
Spine -17.803690 -0.184397 -8.423872
Head 38.761461 -6.653447 19.720760
LeftShoulder -7.929179 21.016539 15.962745
LeftArm 21.538749 21.755605 -72.041976
LeftForeArm 14.243325 -0.000000 20.299250
LeftHand -12.916251 -0.000000 -9.871911
LeftHandThumb1 -26.253704 0.000000 33.147579
RightShoulder -38.871685 -50.230824 24.937154
RightArm 56.282886 -18.599151 49.645549
RightForeArm 0.136849 0.000000 21.458365
RightHand 1.608512 -0.000000 12.052573
RightHandThumb1 -24.326973 -0.000000 -32.862282
LeftUpLeg -26.464786 12.488355 4.352188
LeftLeg 17.762411 -0.000000 -0.000000
LeftFoot -13.178358 10.376710 -3.212130
LeftToeBase 6.005049 -0.000000 -0.000000
RightUpLeg -80.371655 -10.605847 2.528660
RightLeg 70.032511 -0.000000 -0.000000
RightFoot 7.811580 -19.170970 21.245167
RightToeBase -0.163762 -0.000000 0.000000
2102
root 9.540935 36.924288 1.525159 65.876566 -72.605137 -408.612106
Spine -17.735824 0.084800 -8.415890
Head 38.746121 -6.598297 19.583841
LeftShoulder -7.940683 21.098251 15.935017
LeftArm 21.440979 21.860985 -71.934227
LeftForeArm 14.329868 -0.000000 20.609105
LeftHand -12.746602 -0.000000 -10.108991
LeftHandThumb1 -26.253704 0.000000 33.147579
RightShoulder -38.892728 -50.208673 24.944490
RightArm 56.359296 -18.635041 49.576370
RightForeArm -0.792425 -0.000000 21.309679
RightHand 1.443539 -0.000000 11.674491
RightHandThumb1 -24.326973 -0.000000 -32.862282
LeftUpLeg -26.486415 12.542965 4.030353
LeftLeg 17.962527 -0.000000 -0.000000
LeftFoot -13.276355 10.570199 -3.210375
LeftToeBase 5.942669 -0.000000 -0.000000
RightUpLeg -80.248469 -10.635411 2.260712
RightLeg 69.460591 -0.000000 -0.000000
RightFoot 6.795856 -19.250083 20.722093
RightToeBase -1.963057 -0.000000 0.000000
2103
root 9.552108 36.899643 1.577923 66.592963 -73.104493 -409.312263
Spine -17.688677 0.316469 -8.441102
Head 38.720670 -6.495995 19.530876
LeftShoulder -7.994886 21.139408 15.922254
LeftArm 21.270318 21.935958 -71.900802
LeftForeArm 14.365781 -0.000000 20.927526
LeftHand -12.720791 -0.000000 -10.195701
LeftHandThumb1 -26.253704 0.000000 33.147579
RightShoulder -38.833654 -50.178837 24.890732
RightArm 56.416712 -18.672654 49.534084
RightForeArm -1.637917 -0.000000 21.172206
RightHand 1.177992 -0.000000 11.100437
RightHandThumb1 -24.326973 -0.000000 -32.862282
LeftUpLeg -26.526310 12.646615 3.664150
LeftLeg 18.140252 -0.000000 -0.000000
LeftFoot -13.377077 10.732167 -3.223881
LeftToeBase 6.028632 -0.000000 -0.000000
RightUpLeg -80.116453 -10.627978 1.946675
RightLeg 68.815113 -0.000000 -0.000000
RightFoot 6.062986 -19.402323 20.431836
RightToeBase -3.653349 -0.000000 0.000000
2104
root 9.560262 36.874050 1.630725 67.200388 -73.540795 -409.945647
Spine -17.588369 0.500754 -8.416517
Head 38.699300 -6.404574 19.464206
LeftShoulder -8.022353 21.202531 15.916995
LeftArm 21.099359 21.932269 -71.923329
LeftForeArm 14.481590 -0.000000 21.218137
LeftHand -12.657430 0.000000 -10.338866
LeftHandThumb1 -26.253704 0.000000 33.147579
RightShoulder -38.775751 -50.146043 24.853082
RightArm 56.488161 -18.687619 49.439800
RightForeArm -2.327169 0.000000 21.016074
RightHand 0.960402 0.000000 10.657402
RightHandThumb1 -24.326973 -0.000000 -32.862282
LeftUpLeg -26.535276 12.789220 3.318569
LeftLeg 18.320227 -0.000000 -0.000000
LeftFoot -13.493881 10.859433 -3.239205
LeftToeBase 6.032690 -0.000000 -0.000000
RightUpLeg -79.875515 -10.651119 1.618860
RightLeg 68.102909 -0.000000 -0.000000
RightFoot 5.560806 -19.578411 20.364853
RightToeBase -4.502291 -0.000000 0.000000
